<svg width="13" height="12" viewBox="0 0 13 12" fill="none" xmlns="http://www.w3.org/2000/svg">
<path d="M0.752513 3.00251C0.615829 3.1392 0.615829 3.3608 0.752513 3.49749L2.9799 5.72487C3.11658 5.86156 3.33819 5.86156 3.47487 5.72487C3.61156 5.58819 3.61156 5.36658 3.47487 5.2299L1.49497 3.25L3.47487 1.2701C3.61156 1.13342 3.61156 0.91181 3.47487 0.775126C3.33819 0.638443 3.11658 0.638443 2.9799 0.775126L0.752513 3.00251ZM5.5 11.1H8.25V10.4H5.5V11.1ZM8.25 2.9H1V3.6H8.25V2.9ZM12.35 7C12.35 4.73563 10.5144 2.9 8.25 2.9V3.6C10.1278 3.6 11.65 5.12223 11.65 7H12.35ZM8.25 11.1C10.5144 11.1 12.35 9.26437 12.35 7H11.65C11.65 8.87777 10.1278 10.4 8.25 10.4V11.1Z" fill="white"/>
</svg>
